<svg xmlns="http://www.w3.org/2000/svg" viewBox="0 0 1280 720" width="1280" height="720" role="img" aria-label="Async Editor mode preview">
  <defs>
    <linearGradient id="ed-bg" x1="0" y1="0" x2="1" y2="1">
      <stop offset="0" stop-color="#0a0a0c"/>
      <stop offset="1" stop-color="#12121a"/>
    </linearGradient>
  </defs>
  <rect width="1280" height="720" fill="url(#ed-bg)"/>
  <rect x="0" y="0" width="1280" height="40" fill="#0c0c0e"/>
  <rect x="0" y="40" width="240" height="680" fill="#0e0e12" stroke="#1f2937" stroke-width="1"/>
  <rect x="240" y="40" width="800" height="680" fill="#0b0b0f" stroke="#1f2937" stroke-width="1"/>
  <rect x="1040" y="40" width="240" height="680" fill="#0e0e12" stroke="#1f2937" stroke-width="1"/>
  <rect x="256" y="56" width="768" height="28" fill="#16161c" rx="4"/>
  <rect x="256" y="96" width="768" height="600" fill="#111116" rx="4" stroke="#252530"/>
  <rect x="16" y="56" width="200" height="12" fill="#252530" rx="2"/>
  <rect x="16" y="80" width="180" height="8" fill="#1a1a22" rx="2"/>
  <rect x="16" y="96" width="190" height="8" fill="#1a1a22" rx="2"/>
  <rect x="16" y="112" width="170" height="8" fill="#1a1a22" rx="2"/>
  <rect x="1056" y="56" width="200" height="12" fill="#252530" rx="2"/>
  <rect x="1056" y="80" width="208" height="120" fill="#14141a" rx="4" stroke="#252530"/>
  <text x="640" y="26" fill="#94a3b8" font-family="system-ui,Segoe UI,sans-serif" font-size="13" text-anchor="middle">Async  Editor</text>
</svg>
